<svg width="24" height="24" viewBox="0 0 24 24" fill="none" xmlns="http://www.w3.org/2000/svg">
<rect width="24" height="24" fill="#F2F2F2"/>
<g id="Home - Desktop - Dark - Active" clip-path="url(#clip0_0_1)">
<rect width="1440" height="1620" transform="translate(-962 -148)" fill="#121721"/>
<g id="Group 10">
<path id="Mask" d="M478 -148H-962V-88C-962 -32.7715 -917.229 12 -862 12H478V-148Z" fill="#5964E0"/>
<mask id="mask0_0_1" style="mask-type:luminance" maskUnits="userSpaceOnUse" x="-962" y="-148" width="1440" height="160">
<path id="Mask_2" d="M478 -148H-962V-88C-962 -32.7715 -917.229 12 -862 12H478V-148Z" fill="white"/>
</mask>
<g mask="url(#mask0_0_1)">
</g>
</g>
<g id="Group 10_2">
<g id="Triangle">
<path id="Mask_3" d="M478 -148H-962V-88C-962 -32.7715 -917.229 12 -862 12H478V-148Z" fill="#5964E0"/>
<mask id="mask1_0_1" style="mask-type:luminance" maskUnits="userSpaceOnUse" x="-962" y="-148" width="1440" height="160">
<path id="Mask_4" d="M478 -148H-962V-88C-962 -32.7715 -917.229 12 -862 12H478V-148Z" fill="white"/>
</mask>
<g mask="url(#mask1_0_1)">
<path id="Triangle_2" opacity="0.0813802" fill-rule="evenodd" clip-rule="evenodd" d="M201.888 -353.424C223.013 -377.387 262.214 -369.054 271.767 -338.571L385.884 25.5922C395.265 55.5279 368.922 84.4789 338.236 77.9565L-28.2518 0.0570723C-58.9374 -6.46534 -71.2281 -43.6284 -50.4823 -67.1604L201.888 -353.424Z" fill="white"/>
</g>
</g>
</g>
<g id="Group 2" clip-path="url(#clip1_0_1)">
<rect id="Rectangle" x="-797" y="-28" width="1110" height="80" rx="6" fill="#19202D"/>
<g id="Group" clip-path="url(#clip2_0_1)">
<g id="Group 16">
<rect id="Rectangle_2" width="24" height="24" rx="3" fill="#5964E0"/>
<path id="Path 2" d="M6 12.5695L9.57248 16.142L18.7144 7" stroke="white" stroke-width="2"/>
</g>
</g>
</g>
<g id="Group 17">
<g id="Pointer Copy 8" filter="url(#filter0_d_0_1)">
<mask id="path-9-outside-1_0_1" maskUnits="userSpaceOnUse" x="20" y="22" width="15" height="16" fill="black">
<rect fill="white" x="20" y="22" width="15" height="16"/>
<path fill-rule="evenodd" clip-rule="evenodd" d="M25.9998 37C25.9998 37 23.794 35.3013 23.018 34C22.242 32.6987 20.7715 31.041 21.0301 30C21.2888 28.959 22.242 28.6309 23.018 29.4117C23.794 30.1924 24.3167 31.8841 24.8341 31.6238C25.3514 31.3636 24.9634 28.8912 24.4461 27.4598C23.9287 26.0284 23.3894 23 24.4461 23C25.5028 23 25.5028 24 25.9998 25.5C26.4967 27 26.1087 29 26.4967 29C26.8847 29 27.0328 28.6506 27.0328 28C27.0328 27.8232 27.0672 27.6737 27.1372 27.5499C27.3247 27.2179 27.7671 27.0694 28.4846 27.0694C29.4698 27.0694 28.9815 29 29.4785 29C29.9755 29 29.9755 29.041 29.9755 28C29.9755 26.959 30.4363 27.0694 31.4302 27.0694C32.4241 27.0694 31.9429 29 32.4603 29C32.9776 29 32.4603 28 32.9572 28C33.4542 28 33.9512 28.1577 33.9512 30.5C33.9512 32.8423 34.2302 32.959 33.4542 34C32.6782 35.041 31.9633 36 31.9633 36C31.9633 36 31.9633 37 31.4302 37C30.8971 37 30.6221 36 29.9755 36C29.3288 36 28.9815 37 28.9815 37H25.9998ZM31.9633 35V31H30.9694V35H31.9633ZM28.9815 34C28.9815 34.2709 29.2121 35 29.4785 35C29.753 35 29.9755 34.2754 29.9755 34V32C29.9755 31.7291 29.7449 31 29.4785 31C29.204 31 28.9815 31.7246 28.9815 32V34ZM26.9937 34C26.9937 34.2709 27.2242 35 27.4906 35C27.7651 35 27.9876 34.2754 27.9876 34V32C27.9876 31.7291 27.7571 31 27.4906 31C27.2162 31 26.9937 31.7246 26.9937 32V34Z"/>
</mask>
<path fill-rule="evenodd" clip-rule="evenodd" d="M25.9998 37C25.9998 37 23.794 35.3013 23.018 34C22.242 32.6987 20.7715 31.041 21.0301 30C21.2888 28.959 22.242 28.6309 23.018 29.4117C23.794 30.1924 24.3167 31.8841 24.8341 31.6238C25.3514 31.3636 24.9634 28.8912 24.4461 27.4598C23.9287 26.0284 23.3894 23 24.4461 23C25.5028 23 25.5028 24 25.9998 25.5C26.4967 27 26.1087 29 26.4967 29C26.8847 29 27.0328 28.6506 27.0328 28C27.0328 27.8232 27.0672 27.6737 27.1372 27.5499C27.3247 27.2179 27.7671 27.0694 28.4846 27.0694C29.4698 27.0694 28.9815 29 29.4785 29C29.9755 29 29.9755 29.041 29.9755 28C29.9755 26.959 30.4363 27.0694 31.4302 27.0694C32.4241 27.0694 31.9429 29 32.4603 29C32.9776 29 32.4603 28 32.9572 28C33.4542 28 33.9512 28.1577 33.9512 30.5C33.9512 32.8423 34.2302 32.959 33.4542 34C32.6782 35.041 31.9633 36 31.9633 36C31.9633 36 31.9633 37 31.4302 37C30.8971 37 30.6221 36 29.9755 36C29.3288 36 28.9815 37 28.9815 37H25.9998ZM31.9633 35V31H30.9694V35H31.9633ZM28.9815 34C28.9815 34.2709 29.2121 35 29.4785 35C29.753 35 29.9755 34.2754 29.9755 34V32C29.9755 31.7291 29.7449 31 29.4785 31C29.204 31 28.9815 31.7246 28.9815 32V34ZM26.9937 34C26.9937 34.2709 27.2242 35 27.4906 35C27.7651 35 27.9876 34.2754 27.9876 34V32C27.9876 31.7291 27.7571 31 27.4906 31C27.2162 31 26.9937 31.7246 26.9937 32V34Z" fill="white"/>
<path d="M25.9998 37L25.3896 37.7923L25.6593 38H25.9998V37ZM21.0301 30L22.0006 30.2411L21.0301 30ZM23.018 29.4117L22.3087 30.1166L22.3087 30.1166L23.018 29.4117ZM24.8341 31.6238L24.3847 30.7305L24.3847 30.7305L24.8341 31.6238ZM24.4461 27.4598L25.3865 27.1199L24.4461 27.4598ZM24.4461 23V22H24.4461L24.4461 23ZM26.4967 29L26.4967 30H26.4967L26.4967 29ZM27.0328 28H26.0328H27.0328ZM27.1372 27.5499L26.2665 27.0581L27.1372 27.5499ZM28.4846 27.0694V26.0694V27.0694ZM29.4785 29V28V29ZM29.9755 28L28.9755 28L29.9755 28ZM31.4302 27.0694V26.0694V27.0694ZM32.4603 29V30V29ZM32.9572 28V27V28ZM33.9512 30.5L32.9512 30.5L33.9512 30.5ZM33.4542 34L34.256 34.5977L33.4542 34ZM31.9633 36L31.1616 35.4023L30.9633 35.6683V36H31.9633ZM31.4302 37V36V37ZM29.9755 36V35V36ZM28.9815 37V38H29.6929L29.9262 37.328L28.9815 37ZM31.9633 35V36H32.9633V35H31.9633ZM31.9633 31H32.9633V30H31.9633V31ZM30.9694 31V30H29.9694V31H30.9694ZM30.9694 35H29.9694V36H30.9694V35ZM25.9998 37C26.6099 36.2077 26.61 36.2078 26.61 36.2078C26.6101 36.2078 26.6101 36.2079 26.6101 36.2079C26.6102 36.2079 26.6102 36.2079 26.6101 36.2079C26.6101 36.2078 26.6099 36.2077 26.6096 36.2075C26.6089 36.207 26.6078 36.2061 26.6061 36.2048C26.6028 36.2022 26.5974 36.198 26.5901 36.1923C26.5756 36.181 26.5534 36.1636 26.5245 36.1407C26.4666 36.0948 26.3819 36.0269 26.2772 35.9411C26.0675 35.769 25.7804 35.5269 25.4712 35.2468C24.8255 34.662 24.1813 33.9983 23.8768 33.4878L22.1591 34.5122C22.6307 35.3029 23.4773 36.1393 24.1285 36.7291C24.4678 37.0364 24.7807 37.3003 25.0087 37.4874C25.123 37.5811 25.2167 37.6561 25.2824 37.7082C25.3153 37.7343 25.3413 37.7547 25.3594 37.7689C25.3685 37.7759 25.3756 37.7815 25.3807 37.7854C25.3832 37.7874 25.3853 37.7889 25.3867 37.7901C25.3875 37.7906 25.3881 37.7911 25.3886 37.7915C25.3888 37.7917 25.389 37.7918 25.3892 37.792C25.3893 37.792 25.3894 37.7921 25.3894 37.7921C25.3895 37.7922 25.3896 37.7923 25.9998 37ZM23.8768 33.4878C23.6639 33.1307 23.4079 32.7566 23.1686 32.4073C22.9219 32.0471 22.6892 31.708 22.4893 31.3809C22.2874 31.0507 22.1451 30.7741 22.0655 30.5486C21.9826 30.3135 22.003 30.2315 22.0006 30.2411L20.0596 29.7589C19.9279 30.289 20.0351 30.8046 20.1794 31.2138C20.3271 31.6325 20.5524 32.0469 20.7828 32.424C21.0151 32.804 21.2794 33.1884 21.5186 33.5375C21.7652 33.8975 21.9841 34.2187 22.1591 34.5122L23.8768 33.4878ZM22.0006 30.2411C22.069 29.966 22.1764 29.9622 22.1275 29.9774C22.1091 29.9832 22.1019 29.9773 22.1203 29.983C22.1427 29.9899 22.2108 30.0181 22.3087 30.1166L23.7272 28.7067C23.1424 28.1183 22.3374 27.8172 21.5326 28.0679C20.7485 28.3123 20.2499 28.993 20.0596 29.7589L22.0006 30.2411ZM22.3087 30.1166C22.584 30.3936 22.8176 30.8419 23.1652 31.4221C23.3068 31.6584 23.5012 31.9715 23.7333 32.2041C23.852 32.3231 24.0432 32.4863 24.3088 32.5793C24.6139 32.6861 24.9614 32.6792 25.2835 32.5171L24.3847 30.7305C24.5774 30.6335 24.7955 30.6306 24.9698 30.6917C25.1049 30.739 25.1642 30.8066 25.1491 30.7915C25.1134 30.7556 25.0316 30.6458 24.8809 30.3942C24.6437 29.9984 24.228 29.2105 23.7272 28.7067L22.3087 30.1166ZM25.2835 32.5171C25.6589 32.3283 25.8353 32.0024 25.9164 31.7983C26.0025 31.5817 26.0409 31.3552 26.0598 31.1615C26.0979 30.7692 26.0735 30.3111 26.0213 29.8648C25.9161 28.965 25.6733 27.9134 25.3865 27.1199L23.5056 27.7997C23.7362 28.4376 23.9461 29.3379 24.0349 30.0971C24.0797 30.4804 24.0876 30.7787 24.0692 30.9678C24.0597 31.0649 24.0476 31.0854 24.0579 31.0594C24.0633 31.0459 24.1386 30.8543 24.3847 30.7305L25.2835 32.5171ZM25.3865 27.1199C25.1556 26.481 24.9134 25.4562 24.8532 24.6213C24.8222 24.1901 24.848 23.9101 24.887 23.7773C24.9053 23.7151 24.9043 23.7641 24.8295 23.8391C24.7294 23.9395 24.5827 24 24.4461 24L24.4461 22C24.0453 22 23.6843 22.1552 23.4134 22.4268C23.1679 22.673 23.0397 22.9697 22.968 23.2138C22.8271 23.6936 22.822 24.2601 22.8584 24.765C22.9331 25.8021 23.2192 27.0072 23.5056 27.7997L25.3865 27.1199ZM24.4461 24C24.5432 24 24.5173 24.0191 24.465 23.9799C24.4303 23.9538 24.4569 23.9538 24.5188 24.0932C24.5831 24.238 24.6456 24.438 24.7339 24.7494C24.8166 25.0411 24.9175 25.413 25.0505 25.8145L26.949 25.1855C26.8335 24.837 26.7481 24.5214 26.658 24.2038C26.5735 23.9057 26.4767 23.5745 26.3468 23.2818C26.2145 22.9837 26.012 22.6399 25.6645 22.3795C25.2995 22.1059 24.8773 22 24.4461 22V24ZM25.0505 25.8145C25.2445 26.4 25.2753 27.1272 25.2893 27.8323C25.2955 28.1438 25.2988 28.5101 25.3327 28.7862C25.3487 28.9155 25.382 29.1325 25.4818 29.3418C25.5891 29.5665 25.8965 30 26.4967 30L26.4967 28C27 28 27.2346 28.371 27.2869 28.4805C27.3317 28.5745 27.3278 28.6235 27.3178 28.5419C27.2998 28.3962 27.2963 28.1687 27.2889 27.7927C27.2756 27.1228 27.252 26.1 26.949 25.1855L25.0505 25.8145ZM26.4967 30C26.7484 30 27.0218 29.9415 27.2754 29.7825C27.5273 29.6245 27.6946 29.4083 27.8022 29.1962C27.9981 28.8097 28.0328 28.3628 28.0328 28H26.0328C26.0328 28.128 26.0253 28.2159 26.0162 28.2722C26.0067 28.3315 25.9998 28.3283 26.0183 28.2918C26.0404 28.2483 26.098 28.1601 26.2129 28.088C26.3297 28.0148 26.439 28 26.4967 28L26.4967 30ZM28.0328 28C28.0328 27.9761 28.0352 27.9713 28.033 27.9807C28.0305 27.9912 28.0238 28.0136 28.008 28.0416L26.2665 27.0581C26.0929 27.3654 26.0328 27.6937 26.0328 28H28.0328ZM28.008 28.0416C27.9541 28.137 27.887 28.1485 27.9437 28.1286C28.0176 28.1026 28.1813 28.0694 28.4846 28.0694V26.0694C27.7465 26.0694 26.7515 26.1993 26.2665 27.0581L28.008 28.0416ZM28.4846 28.0694C28.4356 28.0694 28.3437 28.0546 28.248 27.9929C28.1594 27.9358 28.1202 27.8723 28.1114 27.8566C28.1049 27.8448 28.1152 27.8599 28.1307 27.9224C28.1458 27.9827 28.1595 28.0611 28.1731 28.1646C28.1913 28.3035 28.2244 28.6794 28.2751 28.9116C28.3028 29.0383 28.3611 29.2669 28.5083 29.4819C28.6883 29.7449 29.0176 30 29.4785 30V28C29.8152 28 30.051 28.1948 30.1587 28.3522C30.2336 28.4616 30.2409 28.5394 30.2291 28.4851C30.2008 28.3553 30.2012 28.2485 30.1562 27.9048C30.1238 27.6575 30.0608 27.2473 29.8598 26.8855C29.7506 26.6888 29.5839 26.4745 29.3315 26.3118C29.072 26.1446 28.7798 26.0694 28.4846 26.0694V28.0694ZM29.4785 30C29.5335 30 29.7579 30.0072 29.9408 29.9747C30.0589 29.9537 30.229 29.908 30.4021 29.7946C30.5857 29.6743 30.7157 29.5156 30.8012 29.3505C30.9413 29.0802 30.9586 28.7901 30.9662 28.6498C30.9758 28.4734 30.9755 28.2479 30.9755 28L28.9755 28C28.9755 28.2726 28.9751 28.4323 28.9692 28.541C28.9664 28.5926 28.9635 28.6055 28.9651 28.5964C28.9663 28.5898 28.9783 28.5213 29.0255 28.4303C29.08 28.3251 29.1711 28.2101 29.3062 28.1216C29.4307 28.04 29.5425 28.0142 29.5908 28.0056C29.6343 27.9978 29.656 27.9993 29.6234 27.9999C29.5884 28.0006 29.5581 28 29.4785 28V30ZM30.9755 28C30.9755 27.9045 30.9809 27.8443 30.9861 27.81C30.9913 27.7755 30.994 27.7818 30.9811 27.8118C30.9664 27.8458 30.9356 27.9005 30.8799 27.9561C30.8239 28.0119 30.766 28.0455 30.7237 28.0636C30.6861 28.0797 30.6683 28.0804 30.6879 28.0773C30.7077 28.0742 30.7465 28.0701 30.8159 28.0679C30.8851 28.0657 30.9668 28.0657 31.0732 28.0666C31.1737 28.0676 31.2999 28.0694 31.4302 28.0694V26.0694C31.2311 26.0694 30.9523 26.0624 30.7513 26.0689C30.5437 26.0756 30.2361 26.0968 29.9365 26.225C29.5811 26.3772 29.305 26.6483 29.1449 27.0191C29.0067 27.3392 28.9755 27.6872 28.9755 28L30.9755 28ZM31.4302 28.0694C31.384 28.0694 31.2951 28.0554 31.2018 27.9961C31.1152 27.941 31.0766 27.8797 31.0681 27.8647C31.0618 27.8537 31.0724 27.8693 31.0887 27.932C31.1045 27.9927 31.1191 28.0713 31.1339 28.1754C31.1541 28.3175 31.1912 28.6916 31.2481 28.9303C31.2792 29.0604 31.3435 29.2902 31.4988 29.5042C31.6879 29.7649 32.0166 30 32.4603 30V28C32.7746 28 33.0052 28.1747 33.1177 28.3299C33.1964 28.4383 33.2057 28.5173 33.1936 28.4663C33.1642 28.3431 33.1624 28.2346 33.114 27.894C33.079 27.6476 33.012 27.2378 32.8074 26.8774C32.6961 26.6814 32.5279 26.4693 32.2754 26.3086C32.0162 26.1437 31.7249 26.0694 31.4302 26.0694V28.0694ZM32.4603 30C32.6903 30 32.9643 29.9418 33.2111 29.7561C33.4524 29.5744 33.5728 29.3421 33.6326 29.1669C33.6899 28.9994 33.7057 28.8444 33.7119 28.7463C33.7182 28.6455 33.7169 28.5471 33.7163 28.4898C33.7156 28.418 33.7156 28.3895 33.7167 28.3683C33.7179 28.3449 33.7186 28.3863 33.6967 28.4561C33.673 28.5315 33.6064 28.6909 33.4364 28.826C33.2571 28.9685 33.0689 29 32.9572 29V27C32.7213 27 32.4406 27.0628 32.1925 27.2599C31.9536 27.4497 31.8419 27.6873 31.7887 27.8564C31.7373 28.0199 31.7242 28.1707 31.7194 28.2645C31.7144 28.3605 31.7159 28.457 31.7165 28.5102C31.7171 28.5779 31.7168 28.6045 31.7158 28.6209C31.7146 28.64 31.7147 28.5944 31.74 28.5206C31.7678 28.4391 31.8398 28.2849 32.0085 28.158C32.1826 28.027 32.3596 28 32.4603 28V30ZM32.9572 29C33.0418 29 32.9964 29.0105 32.9186 28.9762C32.8128 28.9295 32.7676 28.8594 32.7684 28.8609C32.7818 28.8847 32.8336 28.9959 32.878 29.2772C32.9214 29.5522 32.9512 29.9452 32.9512 30.5L34.9512 30.5C34.9512 29.3195 34.8369 28.4603 34.5127 27.8824C34.3272 27.5517 34.0645 27.2957 33.7258 27.1463C33.4151 27.0092 33.1211 27 32.9572 27V29ZM32.9512 30.5C32.9512 31.1063 32.9693 31.5692 32.9834 31.928C32.9982 32.3031 33.0054 32.5128 32.9955 32.6778C32.9873 32.8141 32.9687 32.8826 32.9398 32.95C32.9029 33.0364 32.8294 33.165 32.6525 33.4023L34.256 34.5977C34.467 34.3145 34.6497 34.0381 34.7786 33.7367C34.9157 33.4162 34.9729 33.1139 34.9919 32.7981C35.0092 32.5111 34.9952 32.1873 34.9819 31.8493C34.9679 31.4949 34.9512 31.0648 34.9512 30.5L32.9512 30.5ZM32.6525 33.4023C32.2644 33.9228 31.8917 34.4228 31.616 34.7927C31.4781 34.9777 31.3645 35.1301 31.2854 35.2362C31.2458 35.2893 31.2149 35.3308 31.1938 35.3591C31.1833 35.3732 31.1752 35.384 31.1698 35.3913C31.1671 35.395 31.165 35.3977 31.1636 35.3996C31.1629 35.4005 31.1624 35.4012 31.1621 35.4016C31.1619 35.4019 31.1618 35.402 31.1617 35.4022C31.1617 35.4022 31.1616 35.4023 31.1616 35.4023C31.1616 35.4023 31.1616 35.4023 31.1616 35.4023C31.1616 35.4023 31.1616 35.4023 31.9633 36C32.7651 36.5977 32.7651 36.5977 32.7651 36.5976C32.7651 36.5976 32.7651 36.5976 32.7651 36.5976C32.7651 36.5976 32.7652 36.5975 32.7652 36.5975C32.7653 36.5974 32.7654 36.5972 32.7656 36.597C32.7659 36.5965 32.7664 36.5958 32.7671 36.5949C32.7685 36.593 32.7706 36.5903 32.7733 36.5866C32.7787 36.5794 32.7868 36.5685 32.7973 36.5544C32.8184 36.5262 32.8493 36.4846 32.8889 36.4316C32.968 36.3254 33.0816 36.173 33.2195 35.988C33.4952 35.6182 33.8679 35.1182 34.256 34.5977L32.6525 33.4023ZM31.9633 36C30.9633 36 30.9633 35.9997 30.9633 35.9995C30.9633 35.9994 30.9633 35.9992 30.9633 35.999C30.9633 35.9987 30.9633 35.9984 30.9633 35.9981C30.9633 35.9975 30.9633 35.997 30.9633 35.9965C30.9633 35.9955 30.9633 35.9948 30.9633 35.9943C30.9633 35.9932 30.9633 35.993 30.9633 35.9935C30.9633 35.9945 30.9632 35.9985 30.963 36.0049C30.9625 36.0181 30.9614 36.0401 30.9589 36.0677C30.9536 36.1277 30.944 36.1916 30.9304 36.2424C30.9134 36.3063 30.9088 36.28 30.9574 36.2192C30.9871 36.1821 31.0434 36.1241 31.1338 36.0756C31.2292 36.0245 31.3333 36 31.4302 36V38C31.9292 38 32.297 37.7464 32.5194 37.4683C32.718 37.22 32.8133 36.9437 32.8629 36.7576C32.916 36.5584 32.9397 36.3723 32.9511 36.2448C32.9569 36.1787 32.96 36.1226 32.9615 36.081C32.9623 36.0601 32.9628 36.0426 32.963 36.029C32.9631 36.0222 32.9632 36.0163 32.9633 36.0115C32.9633 36.009 32.9633 36.0069 32.9633 36.005C32.9633 36.004 32.9633 36.0031 32.9633 36.0023C32.9633 36.0019 32.9633 36.0015 32.9633 36.0011C32.9633 36.0009 32.9633 36.0006 32.9633 36.0005C32.9633 36.0003 32.9633 36 31.9633 36ZM31.4302 36C31.6321 36 31.7383 36.1002 31.7147 36.0802C31.6785 36.0496 31.6349 35.9997 31.5018 35.8459C31.3985 35.7265 31.2228 35.5229 31.0005 35.3561C30.7609 35.1766 30.4167 35 29.9755 35V37C29.8576 37 29.7902 36.9484 29.8008 36.9564C29.8285 36.9771 29.8761 37.0235 29.9891 37.1541C30.0722 37.2503 30.2377 37.4504 30.4232 37.6073C30.6213 37.7748 30.9618 38 31.4302 38V36ZM29.9755 35C29.1149 35 28.6053 35.645 28.4054 35.943C28.2824 36.1265 28.1933 36.3029 28.1357 36.4296C28.1062 36.4943 28.0834 36.5496 28.0672 36.5909C28.059 36.6117 28.0524 36.6291 28.0474 36.6427C28.0448 36.6496 28.0427 36.6555 28.041 36.6603C28.0401 36.6628 28.0393 36.665 28.0386 36.6669C28.0383 36.6679 28.038 36.6688 28.0377 36.6696C28.0375 36.6701 28.0374 36.6705 28.0373 36.6709C28.0372 36.671 28.0371 36.6713 28.0371 36.6714C28.037 36.6717 28.0369 36.672 28.9815 37C29.9262 37.328 29.9261 37.3283 29.926 37.3286C29.926 37.3286 29.9259 37.3289 29.9258 37.3291C29.9257 37.3294 29.9256 37.3297 29.9255 37.33C29.9253 37.3306 29.9251 37.3311 29.9249 37.3316C29.9246 37.3326 29.9243 37.3334 29.9241 37.3339C29.9237 37.335 29.9236 37.3353 29.9238 37.3348C29.9242 37.3338 29.9257 37.3298 29.9283 37.3232C29.9335 37.3098 29.9429 37.2869 29.9561 37.2579C29.9838 37.1971 30.0219 37.1235 30.0665 37.057C30.0883 37.0245 30.1082 36.9988 30.1252 36.9796C30.1425 36.9601 30.152 36.9527 30.152 36.9527C30.1505 36.9539 30.0865 37 29.9755 37V35ZM28.9815 36H25.9998V38H28.9815V36ZM32.9633 35V31H30.9633V35H32.9633ZM31.9633 30H30.9694V32H31.9633V30ZM29.9694 31V35H31.9694V31H29.9694ZM30.9694 36H31.9633V34H30.9694V36ZM27.9815 34C27.9815 34.3159 28.088 34.7033 28.2084 34.9894C28.2725 35.1419 28.37 35.3375 28.5129 35.5131C28.6268 35.6531 28.948 36 29.4785 36V34C29.6815 34 29.8341 34.0708 29.9218 34.1272C30.0053 34.1809 30.0504 34.2338 30.064 34.2506C30.0888 34.281 30.0786 34.2774 30.0518 34.2138C30.029 34.1594 30.0079 34.0943 29.9936 34.0352C29.9867 34.0066 29.9829 33.9856 29.9811 33.9736C29.9788 33.9583 29.9815 33.9691 29.9815 34H27.9815ZM29.4785 36C30.0006 36 30.3216 35.6667 30.444 35.518C30.5904 35.3402 30.6887 35.1421 30.7528 34.9883C30.8744 34.6969 30.9755 34.3121 30.9755 34H28.9755C28.9755 33.9599 28.9797 33.9727 28.9631 34.043C28.9492 34.102 28.9289 34.1658 28.907 34.2183C28.8812 34.2801 28.8724 34.2803 28.8999 34.247C28.9151 34.2284 28.9616 34.1751 29.0462 34.1219C29.1356 34.0656 29.2843 34 29.4785 34V36ZM30.9755 34V32H28.9755V34H30.9755ZM30.9755 32C30.9755 31.6841 30.869 31.2967 30.7486 31.0106C30.6845 30.8581 30.587 30.6625 30.4441 30.4869C30.3302 30.3469 30.009 30 29.4785 30V32C29.2755 32 29.1229 31.9292 29.0352 31.8728C28.9517 31.8191 28.9066 31.7662 28.893 31.7494C28.8682 31.719 28.8784 31.7226 28.9052 31.7862C28.928 31.8406 28.9491 31.9057 28.9634 31.9648C28.9703 31.9934 28.9741 32.0144 28.9759 32.0264C28.9782 32.0417 28.9755 32.0309 28.9755 32H30.9755ZM29.4785 30C28.9564 30 28.6354 30.3333 28.513 30.482C28.3666 30.6598 28.2683 30.8579 28.2042 31.0117C28.0826 31.3031 27.9815 31.6879 27.9815 32H29.9815C29.9815 32.0401 29.9773 32.0273 29.9939 31.957C30.0078 31.898 30.0281 31.8342 30.05 31.7817C30.0758 31.7199 30.0846 31.7197 30.0571 31.753C30.0419 31.7716 29.9954 31.8249 29.9108 31.8781C29.8214 31.9344 29.6726 32 29.4785 32V30ZM27.9815 32V34H29.9815V32H27.9815ZM25.9937 34C25.9937 34.3159 26.1001 34.7033 26.2205 34.9894C26.2847 35.1419 26.3821 35.3375 26.525 35.5131C26.639 35.6531 26.9601 36 27.4906 36V34C27.6937 34 27.8463 34.0708 27.934 34.1272C28.0174 34.1809 28.0625 34.2338 28.0762 34.2506C28.1009 34.281 28.0908 34.2774 28.064 34.2138C28.0411 34.1594 28.0201 34.0943 28.0058 34.0352C27.9989 34.0066 27.995 33.9856 27.9932 33.9736C27.9909 33.9583 27.9937 33.9691 27.9937 34H25.9937ZM27.4906 36C28.0127 36 28.3337 35.6667 28.4562 35.518C28.6025 35.3402 28.7008 35.1421 28.765 34.9883C28.8865 34.6969 28.9876 34.3121 28.9876 34H26.9876C26.9876 33.9599 26.9918 33.9727 26.9752 34.043C26.9613 34.102 26.941 34.1658 26.9191 34.2183C26.8934 34.2801 26.8846 34.2803 26.912 34.247C26.9273 34.2284 26.9737 34.1751 27.0583 34.1219C27.1478 34.0656 27.2965 34 27.4906 34V36ZM28.9876 34V32H26.9876V34H28.9876ZM28.9876 32C28.9876 31.6841 28.8812 31.2967 28.7608 31.0106C28.6966 30.8581 28.5992 30.6625 28.4563 30.4869C28.3423 30.3469 28.0211 30 27.4906 30V32C27.2876 32 27.135 31.9292 27.0473 31.8728C26.9639 31.8191 26.9188 31.7662 26.9051 31.7494C26.8804 31.719 26.8905 31.7226 26.9173 31.7862C26.9402 31.8406 26.9612 31.9057 26.9755 31.9648C26.9824 31.9934 26.9863 32.0144 26.9881 32.0264C26.9903 32.0417 26.9876 32.0309 26.9876 32H28.9876ZM27.4906 30C26.9686 30 26.6476 30.3333 26.5251 30.482C26.3788 30.6598 26.2805 30.8579 26.2163 31.0117C26.0948 31.3031 25.9937 31.6879 25.9937 32H27.9937C27.9937 32.0401 27.9895 32.0273 28.006 31.957C28.02 31.898 28.0403 31.8342 28.0621 31.7817C28.0879 31.7199 28.0967 31.7197 28.0693 31.753C28.054 31.7716 28.0076 31.8249 27.923 31.8781C27.8335 31.9344 27.6848 32 27.4906 32V30ZM25.9937 32V34H27.9937V32H25.9937Z" fill="black" mask="url(#path-9-outside-1_0_1)"/>
</g>
</g>
</g>
<defs>
<filter id="filter0_d_0_1" x="18" y="21" width="18.9999" height="20" filterUnits="userSpaceOnUse" color-interpolation-filters="sRGB">
<feFlood flood-opacity="0" result="BackgroundImageFix"/>
<feColorMatrix in="SourceAlpha" type="matrix" values="0 0 0 0 0 0 0 0 0 0 0 0 0 0 0 0 0 0 127 0" result="hardAlpha"/>
<feOffset dy="1"/>
<feGaussianBlur stdDeviation="1"/>
<feColorMatrix type="matrix" values="0 0 0 0 0 0 0 0 0 0 0 0 0 0 0 0 0 0 1 0"/>
<feBlend mode="normal" in2="BackgroundImageFix" result="effect1_dropShadow_0_1"/>
<feBlend mode="normal" in="SourceGraphic" in2="effect1_dropShadow_0_1" result="shape"/>
</filter>
<clipPath id="clip0_0_1">
<rect width="1440" height="1620" fill="white" transform="translate(-962 -148)"/>
</clipPath>
<clipPath id="clip1_0_1">
<rect width="1110" height="80" fill="white" transform="translate(-797 -28)"/>
</clipPath>
<clipPath id="clip2_0_1">
<rect width="148" height="24" fill="white"/>
</clipPath>
</defs>
</svg>
