<?xml version="1.0" standalone="no"?>
<!DOCTYPE svg PUBLIC "-//W3C//DTD SVG 20010904//EN"
 "http://www.w3.org/TR/2001/REC-SVG-20010904/DTD/svg10.dtd">
<svg version="1.0" xmlns="http://www.w3.org/2000/svg"
 width="83.000000pt" height="83.000000pt" viewBox="0 0 83.000000 83.000000"
 preserveAspectRatio="xMidYMid meet">

<g transform="translate(0.000000,83.000000) scale(0.100000,-0.100000)"
fill="#000000" stroke="none">
<path d="M13 815 c-10 -10 -9 -20 3 -45 9 -17 22 -34 30 -37 8 -3 12 -9 9 -13
-3 -4 2 -11 11 -14 9 -4 14 -9 11 -13 -5 -4 48 -80 96 -138 4 -5 17 -25 28
-43 11 -18 24 -30 29 -27 6 3 7 -1 4 -9 -4 -9 1 -18 10 -22 9 -3 16 -11 16
-17 0 -6 7 -18 16 -28 15 -16 48 -132 35 -125 -3 2 -7 -56 -8 -129 -2 -98 1
-136 10 -144 17 -13 59 -3 50 13 -5 8 -3 8 8 0 10 -8 27 -6 67 11 29 11 49 25
45 29 -4 4 0 4 9 1 27 -11 34 21 37 160 2 142 5 157 32 196 10 14 16 29 14 33
-3 3 -2 4 1 1 4 -2 20 13 35 35 31 43 36 56 17 44 -7 -4 -8 -3 -4 5 4 6 11 9
16 6 4 -3 14 3 21 12 10 12 10 14 2 9 -8 -4 -13 -1 -13 9 0 9 4 14 9 10 13 -7
61 41 61 61 0 8 4 13 9 9 5 -3 12 4 16 15 3 11 10 20 15 20 4 0 11 11 14 25 4
14 11 25 16 25 6 0 10 6 10 14 0 7 7 19 15 26 17 14 15 33 -5 42 -8 4 -188 7
-400 7 -315 0 -387 -2 -397 -14z"/>
</g>
</svg>
